<mxfile host="app.diagrams.net" modified="2023-11-20T10:57:17.346Z" agent="Mozilla/5.0 (Windows NT 10.0; Win64; x64) AppleWebKit/537.36 (KHTML, like Gecko) Chrome/119.0.0.0 Safari/537.36" etag="O2irArOaaabPFcrD-zyv" version="22.1.3" type="github">
  <diagram name="Страница — 1" id="u-eN9tC5m5Zn1KJZHHoS">
    <mxGraphModel dx="1647" dy="897" grid="1" gridSize="10" guides="1" tooltips="1" connect="1" arrows="1" fold="1" page="1" pageScale="1" pageWidth="827" pageHeight="1169" math="0" shadow="0">
      <root>
        <mxCell id="0" />
        <mxCell id="1" parent="0" />
        <mxCell id="EwqhaF5j5BTm5tZbgZ1h-1" value="Eftech.Factory" style="swimlane;startSize=20;" vertex="1" parent="1">
          <mxGeometry x="40" y="70" width="200" height="470" as="geometry" />
        </mxCell>
        <mxCell id="EwqhaF5j5BTm5tZbgZ1h-2" value="Подготовка релиза Eftech.Factory (релиз не выпущен)" style="rounded=1;whiteSpace=wrap;html=1;strokeColor=#82b366;fillColor=#d5e8d4;" vertex="1" parent="EwqhaF5j5BTm5tZbgZ1h-1">
          <mxGeometry x="40" y="50" width="120" height="60" as="geometry" />
        </mxCell>
        <mxCell id="EwqhaF5j5BTm5tZbgZ1h-3" value="Выпуск релиза Eftech.Factory" style="rounded=1;whiteSpace=wrap;html=1;strokeColor=#82b366;fillColor=#d5e8d4;" vertex="1" parent="EwqhaF5j5BTm5tZbgZ1h-1">
          <mxGeometry x="40" y="180" width="120" height="60" as="geometry" />
        </mxCell>
        <mxCell id="EwqhaF5j5BTm5tZbgZ1h-4" value="Конфигураторы" style="swimlane;startSize=20;" vertex="1" parent="1">
          <mxGeometry x="240" y="70" width="300" height="470" as="geometry" />
        </mxCell>
        <mxCell id="EwqhaF5j5BTm5tZbgZ1h-5" style="edgeStyle=orthogonalEdgeStyle;rounded=0;orthogonalLoop=1;jettySize=auto;html=1;exitX=0.5;exitY=1;exitDx=0;exitDy=0;" edge="1" parent="EwqhaF5j5BTm5tZbgZ1h-4" source="EwqhaF5j5BTm5tZbgZ1h-6" target="EwqhaF5j5BTm5tZbgZ1h-7">
          <mxGeometry relative="1" as="geometry" />
        </mxCell>
        <mxCell id="EwqhaF5j5BTm5tZbgZ1h-6" value="&lt;span style=&quot;background-color: rgb(251 , 251 , 251)&quot;&gt;Создание/обновление тестовой версии приложения на основе планируемого релиза Eftech.Factory&lt;/span&gt;" style="rounded=1;whiteSpace=wrap;html=1;strokeColor=#82b366;fillColor=#FFFFFF;" vertex="1" parent="EwqhaF5j5BTm5tZbgZ1h-4">
          <mxGeometry x="20" y="40" width="260" height="80" as="geometry" />
        </mxCell>
        <mxCell id="EwqhaF5j5BTm5tZbgZ1h-7" value="&lt;span style=&quot;background-color: rgb(251 , 251 , 251)&quot;&gt;Тестирование приложения&lt;/span&gt;" style="rounded=1;whiteSpace=wrap;html=1;strokeColor=#82b366;fillColor=#FFFFFF;" vertex="1" parent="EwqhaF5j5BTm5tZbgZ1h-4">
          <mxGeometry x="40" y="180" width="220" height="60" as="geometry" />
        </mxCell>
        <mxCell id="EwqhaF5j5BTm5tZbgZ1h-8" style="edgeStyle=orthogonalEdgeStyle;rounded=0;orthogonalLoop=1;jettySize=auto;html=1;exitX=0.5;exitY=1;exitDx=0;exitDy=0;entryX=0.5;entryY=0;entryDx=0;entryDy=0;" edge="1" parent="EwqhaF5j5BTm5tZbgZ1h-4" source="EwqhaF5j5BTm5tZbgZ1h-9" target="EwqhaF5j5BTm5tZbgZ1h-10">
          <mxGeometry relative="1" as="geometry" />
        </mxCell>
        <mxCell id="EwqhaF5j5BTm5tZbgZ1h-9" value="Подготовка релиза приложения на основе релиза Eftech.Factory" style="rounded=1;whiteSpace=wrap;html=1;strokeColor=#82b366;fillColor=#FFFFFF;" vertex="1" parent="EwqhaF5j5BTm5tZbgZ1h-4">
          <mxGeometry x="40" y="280" width="220" height="60" as="geometry" />
        </mxCell>
        <mxCell id="EwqhaF5j5BTm5tZbgZ1h-10" value="Выпуск релиза приложения" style="rounded=1;whiteSpace=wrap;html=1;strokeColor=#82b366;fillColor=#FFFFFF;" vertex="1" parent="EwqhaF5j5BTm5tZbgZ1h-4">
          <mxGeometry x="40" y="370" width="220" height="60" as="geometry" />
        </mxCell>
        <mxCell id="EwqhaF5j5BTm5tZbgZ1h-11" style="edgeStyle=orthogonalEdgeStyle;rounded=0;orthogonalLoop=1;jettySize=auto;html=1;exitX=1;exitY=0.5;exitDx=0;exitDy=0;" edge="1" parent="1" source="EwqhaF5j5BTm5tZbgZ1h-2">
          <mxGeometry relative="1" as="geometry">
            <mxPoint x="260" y="150" as="targetPoint" />
          </mxGeometry>
        </mxCell>
        <mxCell id="EwqhaF5j5BTm5tZbgZ1h-12" value="Совместный выпуск Eftech.Factory и бизнес-приложения" style="text;html=1;strokeColor=none;fillColor=none;align=center;verticalAlign=middle;whiteSpace=wrap;rounded=0;fontSize=16;" vertex="1" parent="1">
          <mxGeometry x="40" y="30" width="430" height="20" as="geometry" />
        </mxCell>
        <mxCell id="EwqhaF5j5BTm5tZbgZ1h-13" style="edgeStyle=orthogonalEdgeStyle;rounded=0;orthogonalLoop=1;jettySize=auto;html=1;entryX=1;entryY=0.5;entryDx=0;entryDy=0;" edge="1" parent="1" source="EwqhaF5j5BTm5tZbgZ1h-7" target="EwqhaF5j5BTm5tZbgZ1h-3">
          <mxGeometry relative="1" as="geometry" />
        </mxCell>
        <mxCell id="EwqhaF5j5BTm5tZbgZ1h-14" style="edgeStyle=orthogonalEdgeStyle;rounded=0;orthogonalLoop=1;jettySize=auto;html=1;exitX=0.5;exitY=1;exitDx=0;exitDy=0;entryX=0;entryY=0.5;entryDx=0;entryDy=0;" edge="1" parent="1" source="EwqhaF5j5BTm5tZbgZ1h-3" target="EwqhaF5j5BTm5tZbgZ1h-9">
          <mxGeometry relative="1" as="geometry" />
        </mxCell>
      </root>
    </mxGraphModel>
  </diagram>
</mxfile>
